<?xml version="1.0" standalone="no"?>
<!DOCTYPE svg PUBLIC "-//W3C//DTD SVG 20010904//EN"
 "http://www.w3.org/TR/2001/REC-SVG-20010904/DTD/svg10.dtd">
<svg version="1.0" xmlns="http://www.w3.org/2000/svg"
 width="2000.000000pt" height="2000.000000pt" viewBox="0 0 2000.000000 2000.000000"
 preserveAspectRatio="xMidYMid meet">
<metadata>
Created by potrace 1.11, written by Peter Selinger 2001-2013
</metadata>
<g transform="translate(0.000000,2000.000000) scale(0.100000,-0.100000)"
fill="#000000" stroke="none">
<path d="M18190 16869 c-41 -4 -100 -10 -130 -13 -30 -4 -73 -9 -95 -11 -22
-2 -58 -6 -80 -9 -22 -3 -69 -8 -105 -11 -36 -3 -76 -8 -90 -10 -14 -2 -52 -7
-84 -10 -33 -3 -71 -7 -85 -9 -14 -2 -57 -7 -96 -11 -76 -7 -131 -13 -185 -20
-19 -2 -60 -7 -90 -10 -30 -3 -71 -8 -90 -10 -19 -3 -63 -7 -98 -11 -35 -3
-71 -7 -80 -9 -9 -1 -55 -6 -101 -10 -47 -4 -92 -8 -102 -10 -10 -2 -46 -6
-80 -10 -35 -4 -78 -8 -96 -11 -18 -2 -57 -6 -86 -9 -66 -6 -145 -15 -177 -20
-14 -2 -58 -7 -98 -10 -41 -4 -81 -8 -90 -10 -9 -1 -51 -6 -92 -10 -41 -3 -82
-8 -90 -10 -8 -2 -49 -7 -90 -10 -65 -5 -91 -14 -197 -66 -68 -33 -123 -64
-123 -69 0 -5 -8 -11 -17 -14 -10 -3 -30 -16 -45 -28 -15 -13 -42 -34 -59 -48
-190 -146 -400 -413 -528 -673 -82 -166 -174 -422 -236 -652 -7 -27 -32 -120
-55 -205 -44 -165 -54 -204 -101 -400 -16 -69 -37 -152 -45 -185 -8 -33 -16
-69 -18 -80 -2 -11 -11 -50 -20 -87 -34 -145 -47 -201 -77 -340 -40 -185 -68
-318 -73 -343 -3 -11 -21 -96 -41 -190 -47 -219 -46 -217 -50 -240 -1 -11 -25
-132 -53 -270 -28 -137 -54 -266 -57 -285 -3 -19 -8 -42 -10 -50 -2 -8 -7 -30
-10 -47 -3 -18 -14 -78 -25 -133 -11 -55 -22 -114 -25 -132 -3 -17 -17 -85
-31 -152 -35 -166 -38 -305 -7 -376 3 -8 7 -20 9 -27 1 -6 17 -33 35 -60 83
-123 207 -189 424 -223 54 -8 662 -5 915 5 164 7 720 7 830 0 271 -16 341 -30
483 -101 127 -63 192 -108 279 -195 193 -192 303 -467 335 -839 14 -157 6
-602 -12 -745 -4 -31 -14 -132 -20 -196 -5 -56 -16 -160 -20 -199 -3 -19 -7
-62 -11 -95 -3 -33 -7 -73 -9 -90 -13 -100 -32 -267 -40 -339 -3 -27 -11 -104
-19 -170 -8 -67 -17 -150 -21 -186 -5 -57 -11 -112 -30 -263 -16 -134 -26
-216 -30 -247 -10 -83 -16 -130 -25 -205 -6 -44 -13 -96 -15 -115 -2 -19 -11
-92 -20 -161 -8 -69 -18 -146 -20 -170 -12 -110 -15 -136 -19 -159 -26 -149
-28 -514 -3 -620 2 -8 7 -31 12 -50 24 -104 99 -207 193 -263 96 -58 279 -112
447 -132 28 -4 57 -8 65 -10 8 -3 47 -7 85 -10 39 -4 99 -10 135 -14 92 -12
302 -3 385 16 11 2 31 6 45 9 272 52 463 204 505 400 2 11 11 52 19 92 25 113
30 168 29 277 -1 154 -28 198 -128 210 -102 12 -119 15 -169 31 -120 40 -185
107 -212 221 -11 47 -11 225 0 278 2 11 7 45 11 75 3 30 8 66 10 80 2 14 9 63
15 110 6 47 13 98 16 115 5 26 18 126 30 215 2 19 9 67 14 105 5 39 12 90 15
115 3 25 7 52 10 60 2 8 6 31 9 50 3 19 8 46 10 60 3 14 7 41 10 60 3 19 12
73 21 120 8 47 24 139 35 205 12 66 34 190 50 275 34 180 80 424 86 460 2 14
7 36 10 50 3 14 8 36 10 50 3 14 9 48 14 75 6 28 12 60 15 73 2 13 6 31 9 40
3 9 7 34 10 54 3 21 11 59 17 85 6 27 13 59 15 73 2 14 7 36 10 50 3 14 8 34
10 45 2 11 24 117 49 235 26 118 48 225 51 238 3 13 16 76 30 140 14 64 34
155 44 202 10 47 21 92 24 100 3 8 7 29 10 45 5 32 48 221 91 400 15 61 29
121 31 135 3 14 7 33 10 42 3 9 6 25 8 35 6 26 44 188 62 258 9 33 18 71 20
85 3 14 7 33 10 42 3 9 6 25 8 35 2 10 9 38 16 63 7 25 14 53 16 62 8 37 14
59 69 278 31 124 59 236 61 249 3 14 8 29 11 34 3 6 7 20 9 31 1 12 10 48 19
81 9 33 34 125 55 205 20 80 63 240 95 355 31 116 61 224 65 240 5 17 26 93
48 170 61 213 113 397 118 414 2 9 19 76 38 150 20 74 37 146 40 160 2 14 9
49 16 76 6 28 13 57 15 65 2 8 8 35 13 60 6 25 13 63 16 85 6 39 9 56 21 115
2 14 7 45 10 70 4 25 8 56 10 70 2 14 6 48 10 75 3 28 8 66 11 85 13 83 13
517 -1 616 -24 174 -61 310 -116 432 -16 35 -29 66 -29 69 0 3 -29 49 -64 102
-114 171 -266 303 -456 394 -94 46 -249 101 -311 112 -18 3 -35 8 -39 10 -7 4
-32 9 -104 20 -21 4 -48 8 -60 11 -116 22 -461 35 -606 23z"/>
<path d="M14137 16534 c-1 -1 -69 -5 -152 -8 -210 -9 -428 -19 -660 -31 -55
-3 -147 -8 -205 -10 -58 -3 -143 -7 -190 -9 -47 -3 -146 -7 -220 -11 -74 -3
-171 -8 -215 -10 -44 -3 -134 -7 -200 -10 -134 -6 -273 -12 -415 -20 -52 -3
-149 -8 -215 -10 -194 -9 -304 -14 -405 -19 -52 -3 -149 -8 -215 -11 -134 -6
-268 -12 -425 -20 -58 -3 -152 -8 -210 -10 -58 -3 -141 -8 -185 -10 -44 -2
-143 -7 -220 -10 -140 -6 -178 -8 -408 -20 -67 -3 -167 -8 -222 -10 -104 -5
-226 -11 -406 -20 -58 -3 -154 -7 -215 -10 -60 -3 -154 -7 -209 -10 -106 -5
-233 -11 -455 -20 -260 -11 -413 -19 -570 -30 -41 -3 -109 -8 -150 -10 -41 -3
-97 -8 -125 -10 -27 -3 -79 -7 -115 -10 -36 -2 -85 -7 -110 -9 -25 -3 -70 -8
-100 -11 -120 -11 -203 -20 -280 -30 -25 -3 -62 -8 -83 -11 -20 -2 -54 -6 -75
-8 -38 -5 -220 -31 -282 -42 -32 -5 -147 -25 -230 -40 -19 -3 -44 -8 -55 -9
-44 -7 -233 -47 -285 -60 -30 -8 -66 -16 -80 -19 -153 -33 -589 -166 -617
-188 -7 -6 -13 -8 -13 -5 0 9 -233 -89 -364 -154 -179 -88 -200 -100 -366
-208 -512 -333 -899 -840 -1175 -1541 -31 -80 -61 -154 -66 -165 -34 -79 -236
-723 -254 -815 -2 -8 -12 -49 -23 -90 -12 -41 -23 -86 -26 -100 -6 -32 -60
-273 -91 -410 -13 -58 -26 -116 -29 -130 -2 -14 -11 -54 -20 -90 -8 -36 -17
-76 -20 -90 -3 -14 -7 -34 -10 -45 -13 -55 -65 -293 -70 -315 -2 -14 -23 -105
-45 -203 -22 -98 -43 -188 -45 -200 -2 -12 -9 -42 -15 -67 -5 -25 -12 -56 -15
-70 -2 -14 -11 -54 -20 -90 -8 -36 -17 -76 -20 -90 -3 -14 -7 -34 -10 -45 -2
-11 -18 -83 -36 -159 -17 -77 -50 -217 -74 -310 -46 -179 -85 -350 -92 -401
-2 -16 -6 -52 -10 -80 -28 -212 10 -471 101 -685 31 -74 102 -219 131 -267 10
-17 34 -57 53 -90 18 -32 53 -86 77 -120 24 -34 44 -64 44 -68 0 -4 7 -13 15
-21 10 -11 13 -26 9 -47 -3 -18 -7 -43 -9 -57 -8 -64 -17 -126 -21 -140 -2 -8
-6 -36 -9 -62 -3 -25 -8 -56 -10 -68 -2 -12 -7 -48 -11 -79 -3 -31 -8 -58 -9
-61 -2 -3 -6 -29 -10 -59 -4 -30 -9 -63 -11 -75 -2 -12 -7 -39 -10 -61 -5 -43
-12 -85 -19 -125 -2 -14 -7 -45 -10 -70 -2 -25 -7 -58 -10 -75 -7 -43 -14 -84
-21 -130 -3 -22 -12 -80 -19 -130 -17 -110 -27 -174 -30 -200 -4 -26 -15 -103
-20 -135 -2 -14 -7 -45 -10 -70 -3 -25 -8 -52 -10 -60 -2 -8 -7 -40 -10 -70
-3 -30 -8 -62 -10 -70 -2 -8 -7 -34 -10 -57 -7 -50 -14 -100 -19 -128 -2 -11
-6 -45 -10 -75 -4 -30 -9 -62 -11 -70 -3 -8 -7 -35 -10 -59 -3 -23 -7 -55 -9
-70 -3 -14 -7 -44 -11 -66 -3 -23 -7 -50 -9 -60 -2 -11 -7 -45 -11 -75 -4 -30
-9 -64 -11 -75 -2 -10 -6 -37 -9 -60 -3 -22 -12 -80 -20 -130 -13 -84 -32
-209 -40 -272 -2 -16 -4 -28 -5 -28 -1 0 -3 -11 -5 -25 -8 -64 -46 -321 -50
-338 -4 -24 -14 -94 -19 -137 -2 -16 -11 -73 -19 -125 -18 -112 -26 -163 -33
-210 -2 -19 -9 -62 -14 -95 -5 -33 -12 -78 -15 -100 -4 -22 -8 -51 -10 -65 -2
-14 -14 -90 -25 -170 -12 -80 -23 -152 -25 -160 -4 -13 -77 -15 -572 -15 -593
-1 -633 -3 -772 -47 -231 -71 -372 -228 -426 -473 -14 -60 -13 -294 1 -367 55
-290 258 -470 579 -514 28 -3 59 -8 70 -10 31 -6 17094 -4 17145 2 138 15 283
57 375 108 151 85 257 220 301 385 30 116 26 339 -9 476 -61 237 -239 386
-517 431 -25 4 -556 8 -1180 8 l-1135 1 -85 65 c-102 78 -133 104 -178 150
-33 34 -34 36 -28 100 4 36 8 76 10 90 3 14 10 68 16 120 6 52 13 106 15 120
2 14 7 54 10 90 4 36 9 72 10 80 1 8 6 44 10 80 4 36 9 73 11 83 2 10 6 46 9
80 3 34 10 89 15 122 5 33 12 89 15 125 4 36 8 76 10 90 6 38 13 99 20 160 4
30 8 66 10 80 2 14 6 50 10 80 3 30 8 72 11 92 3 21 7 52 9 70 3 18 7 56 10
83 3 28 12 102 20 165 8 63 17 135 19 160 3 25 15 119 26 210 11 91 23 185 26
210 13 113 15 129 29 240 3 19 7 58 10 85 7 63 14 123 20 155 3 14 7 52 10 85
3 33 7 69 9 80 2 11 7 49 10 85 4 36 8 76 11 89 2 13 7 49 10 80 3 31 7 66 9
78 3 12 7 48 11 80 3 32 7 69 10 83 2 14 7 48 10 75 7 73 45 386 50 415 2 14
11 88 20 165 15 135 22 187 31 250 2 17 11 89 19 160 8 72 17 146 20 165 3 19
7 55 10 80 2 25 8 68 12 95 21 151 3 398 -37 490 -76 179 -170 273 -333 333
-108 41 -121 41 -1092 27 -1062 -16 -1052 -16 -1205 21 -340 82 -581 322 -638
635 -16 85 -6 237 26 399 17 85 33 166 35 180 3 14 16 81 30 150 14 69 28 143
32 165 3 22 10 56 15 75 5 19 12 51 15 70 3 19 21 112 40 205 18 94 36 183 39
199 3 16 10 52 15 80 6 28 12 62 15 76 2 14 7 36 10 50 3 14 8 36 10 50 2 14
34 176 71 360 36 184 68 347 70 362 2 15 6 31 9 36 2 4 7 26 10 47 4 31 43
232 82 420 2 11 7 36 10 55 10 53 9 51 54 275 23 116 44 221 47 235 2 14 20
102 39 195 19 94 37 181 39 195 7 48 65 325 86 410 65 271 176 568 295 791
108 202 285 442 390 529 24 19 43 37 43 40 1 5 -37 8 -42 4z m-4452 -9607 c39
-3 113 -8 165 -12 52 -3 111 -8 130 -10 19 -2 73 -7 120 -10 47 -4 92 -8 101
-10 9 -2 40 -6 70 -10 108 -12 135 -16 162 -21 16 -3 38 -7 50 -9 63 -7 126
-18 157 -25 19 -5 51 -11 70 -14 19 -4 71 -15 115 -25 351 -84 582 -187 701
-313 50 -52 120 -168 136 -223 6 -22 15 -44 19 -50 3 -5 16 -48 27 -95 18 -76
25 -114 37 -200 28 -201 24 -661 -9 -1045 -3 -33 -8 -102 -11 -153 -4 -51 -8
-112 -10 -135 -7 -85 -18 -294 -19 -364 0 -40 -3 -74 -6 -74 -3 -1 -1363 -2
-3022 -3 l-3018 -1 -28 25 c-16 14 -56 48 -88 75 -100 85 -225 209 -239 235
-7 14 -11 32 -10 40 1 8 5 40 9 70 3 30 8 66 10 80 2 14 8 48 12 75 4 28 9 57
10 65 2 8 6 31 9 50 4 19 9 46 11 60 14 82 96 428 114 480 5 14 21 66 35 115
47 155 155 429 206 519 6 11 23 40 37 65 90 163 190 287 322 401 44 38 192
112 290 144 95 31 216 67 250 72 14 3 33 7 42 10 18 5 15 5 153 34 55 11 114
23 130 25 17 3 41 8 55 10 54 11 106 19 187 30 13 2 42 6 65 10 24 4 54 9 68
10 14 2 43 5 65 8 57 9 112 16 175 22 30 3 73 8 95 11 22 3 60 7 85 9 25 1 79
6 120 10 107 10 132 12 255 20 61 4 126 9 145 11 19 1 107 6 195 9 88 4 161 8
163 10 5 5 1007 -3 1087 -8z"/>
</g>
</svg>
